<svg id="Layer_1" data-name="Layer 1" xmlns="http://www.w3.org/2000/svg" viewBox="0 0 943.96 327.15"><defs><style>.cls-1{fill:#f25613;}.cls-2{fill:#8641df;}</style></defs><path class="cls-1" d="M644.23,600.72q3.6,7.65,7.21,11.25c2.4,2.4,4.54,3.31,6.41,2.7s3.38-2.85,4.5-6.75,1.62-9.68,1.47-17.33l-.45-104.45h33.31v92.07q0,10.35-.22,23.41a80.43,80.43,0,0,1-1.8,23.18,49.78,49.78,0,0,1-7.43,17.11,35.07,35.07,0,0,1-11.71,10.69,29.83,29.83,0,0,1-14.63,3.72,34.89,34.89,0,0,1-15.64-2.93,40.77,40.77,0,0,1-12.83-9.57,89.17,89.17,0,0,1-11.59-16.09q-5.64-9.68-11.71-22.29Q603,591.71,597.3,578.1t-11.59-26.45a86.15,86.15,0,0,0-8.21-14.41q-4.39-6.07-8.11-7.31t-6.08,3.6q-2.35,4.85-1.91,18.34l.23,104.67H528.09V540.84a82.36,82.36,0,0,1,2.25-23.63,55.66,55.66,0,0,1,7.54-17.45,31.7,31.7,0,0,1,11.59-10.58,28,28,0,0,1,14.63-3q14.4,1.14,27.13,13.17T615.87,537Z" transform="translate(-528.02 -436.43)"/><path class="cls-1" d="M899.49,520.81H790.32a15,15,0,0,0-9,2.59,16.58,16.58,0,0,0-5.4,6.3,19.7,19.7,0,0,0-1.91,8.22,17.34,17.34,0,0,0,1.69,8.21,16.69,16.69,0,0,0,5.4,6.31,15.47,15.47,0,0,0,9.23,2.58H899.49v33.77H790.32q-8.1,0-12.16,5.25a18.72,18.72,0,0,0,0,23.26q4.05,5.25,12.16,5.25H899.49v33.77H790.32q-16.67,0-28.14-8.22a48.32,48.32,0,0,1-16.77-20.71,54.62,54.62,0,0,1-3.71-27.46,62.79,62.79,0,0,1,10.8-28.7,47.41,47.41,0,0,1-9.57-17.11,50.76,50.76,0,0,1-2.13-18.57,55.43,55.43,0,0,1,4.39-18,49.15,49.15,0,0,1,10.24-15.31,51.41,51.41,0,0,1,15.3-10.69,46.23,46.23,0,0,1,19.59-4.05H899.49Z" transform="translate(-528.02 -436.43)"/><path class="cls-1" d="M1232.62,605.67a75.52,75.52,0,0,1,4-20.93,44,44,0,0,1,9.61-16,42.52,42.52,0,0,1,15.45-10.12,58.9,58.9,0,0,1,21.56-3.61h93.19v33.77h-93.19a16.9,16.9,0,0,0-16.88,16.88v50.87h-33.77Zm144.06-84.86H1233.3V487.5h143.38Z" transform="translate(-528.02 -436.43)"/><path class="cls-1" d="M1439.48,522.37a47.07,47.07,0,0,1-16.88-3.12v137.3h33.76V519.25A47,47,0,0,1,1439.48,522.37Z" transform="translate(-528.02 -436.43)"/><path class="cls-1" d="M1171,522.37a47.13,47.13,0,0,1-16.89-3.12v137.3h33.77V519.25A47.12,47.12,0,0,1,1171,522.37Z" transform="translate(-528.02 -436.43)"/><rect class="cls-2" x="1092.21" y="614.03" width="16.71" height="4.55" transform="translate(-641.47 522.3) rotate(-45)"/><circle class="cls-2" cx="581.29" cy="170.97" r="5.82"/><polygon class="cls-2" points="476.66 153.27 461.21 137.83 434.15 137.83 423.96 127.64 427.18 124.42 436.03 133.28 463.1 133.28 479.88 150.05 476.66 153.27"/><path class="cls-2" d="M950.06,565a6.62,6.62,0,0,1-3.06-.75h0a6.65,6.65,0,1,1,3.06.75Zm-1.59-3.58a3.46,3.46,0,0,0,4.67-1.48,3.42,3.42,0,0,0,.23-2.64,3.46,3.46,0,1,0-6.6,2.09,3.4,3.4,0,0,0,1.7,2Z" transform="translate(-528.02 -436.43)"/><polygon class="cls-2" points="567.06 75.81 551.62 60.37 524.55 60.37 514.36 50.18 517.58 46.96 526.43 55.82 553.5 55.82 570.28 72.59 567.06 75.81"/><path class="cls-2" d="M1040.46,487.56a6.62,6.62,0,0,1-3.06-.75h0a6.57,6.57,0,0,1-3.27-3.89,6.65,6.65,0,1,1,12.68-4,6.66,6.66,0,0,1-6.35,8.66Zm-1.59-3.58a3.47,3.47,0,1,0-1.7-2,3.41,3.41,0,0,0,1.7,2Z" transform="translate(-528.02 -436.43)"/><polygon class="cls-2" points="523.6 120.66 511.29 108.34 511.29 85.56 502.17 76.19 505.43 73.02 515.85 83.71 515.85 106.46 526.83 117.44 523.6 120.66"/><path class="cls-2" d="M1029.27,515a6.69,6.69,0,0,1-3-.74h0a6.68,6.68,0,1,1,3,.74Zm-1.58-3.57a3.47,3.47,0,0,0,4.9-4.13,3.42,3.42,0,0,0-1.71-2,3.46,3.46,0,1,0-3.19,6.15Z" transform="translate(-528.02 -436.43)"/><polygon class="cls-2" points="434.94 194.27 422.62 181.96 422.62 159.18 413.5 149.81 416.76 146.63 427.18 157.33 427.18 180.07 438.16 191.05 434.94 194.27"/><path class="cls-2" d="M940.61,588.58a6.59,6.59,0,0,1-3.06-.75h0a6.65,6.65,0,1,1,9.41-7.91,6.58,6.58,0,0,1-.44,5.07A6.66,6.66,0,0,1,940.61,588.58ZM939,585a3.46,3.46,0,0,0,4.67-1.48,3.42,3.42,0,0,0,.23-2.64A3.47,3.47,0,1,0,939,585Z" transform="translate(-528.02 -436.43)"/><polygon class="cls-2" points="558.41 167.84 555.19 164.62 572.07 147.74 572.07 121.87 582.64 111.31 585.86 114.53 576.63 123.76 576.63 149.62 558.41 167.84"/><path class="cls-2" d="M1114.67,553.07a6.58,6.58,0,0,1-3.05-.75h0a6.64,6.64,0,0,1-2.84-9,6.65,6.65,0,1,1,5.89,9.72Zm-1.58-3.58a3.46,3.46,0,0,0,4.67-1.48,3.42,3.42,0,0,0,.23-2.64,3.47,3.47,0,0,0-6.38-.55,3.46,3.46,0,0,0,1.48,4.67Z" transform="translate(-528.02 -436.43)"/><polygon class="cls-2" points="459.69 105.51 456.47 102.29 473.36 85.4 473.36 59.54 483.93 48.97 487.15 52.19 477.92 61.43 477.92 87.29 459.69 105.51"/><path class="cls-2" d="M1016,490.74a6.55,6.55,0,0,1-3.05-.75h0a6.65,6.65,0,1,1,3.05.75Zm-1.58-3.58a3.46,3.46,0,0,0,4.89-4.12,3.42,3.42,0,0,0-1.7-2,3.46,3.46,0,0,0-4.67,1.48,3.46,3.46,0,0,0,1.48,4.67Z" transform="translate(-528.02 -436.43)"/><path class="cls-2" d="M1459.54,449.41a5.1,5.1,0,0,0-3.2-1.11,5.19,5.19,0,0,0-3.21,9.27,22.13,22.13,0,1,1-27.29,0,5.19,5.19,0,0,0-6.42-8.16,32.5,32.5,0,1,0,40.12,0Z" transform="translate(-528.02 -436.43)"/><path class="cls-2" d="M1439.48,480.34a5.2,5.2,0,0,0,5.19-5.19V441.62a5.19,5.19,0,0,0-10.38,0v33.53A5.2,5.2,0,0,0,1439.48,480.34Z" transform="translate(-528.02 -436.43)"/><path class="cls-2" d="M1130.41,463a41.34,41.34,0,0,1,3.42-3.05l.89-.72.45-.35c.51-.4-.92.7-.66.51l.28-.22c.74-.57,1.5-1.12,2.27-1.66,1.78-1.25,3.62-2.42,5.5-3.5a71.52,71.52,0,0,1,7.79-3.88l-1.14.48a62.16,62.16,0,0,1,15.65-4.31l-1.27.17a56.67,56.67,0,0,1,14.72,0l-1.27-.17a59.84,59.84,0,0,1,15.14,4.19L1191,450a71.23,71.23,0,0,1,10.41,5.48q2.71,1.72,5.29,3.64l.71.54c.68.51-.61-.48-.14-.11l1.31,1c1,.78,1.92,1.59,2.87,2.4a5,5,0,0,0,3.37,1.4,4.87,4.87,0,0,0,3.38-1.4c1.65-1.79,2-5,0-6.75-8.46-7.35-18-13.47-28.73-16.91a59.85,59.85,0,0,0-24.9-2.55,69.05,69.05,0,0,0-21.38,6.11,72.63,72.63,0,0,0-13.1,7.9,54.83,54.83,0,0,0-6.41,5.38l-.07.07a4.78,4.78,0,0,0,6.76,6.75Z" transform="translate(-528.02 -436.43)"/><path class="cls-2" d="M1142.29,477c.82-.81,1.71-1.54,2.6-2.26l.62-.48c-1.66,1.3-.49.38-.08.08s1.1-.8,1.66-1.19c1.33-.92,2.71-1.78,4.11-2.58a52.87,52.87,0,0,1,5.8-2.86l-1.14.48a46.47,46.47,0,0,1,11.66-3.24l-1.27.17a41,41,0,0,1,10.79,0l-1.27-.17a42.29,42.29,0,0,1,10.63,2.94l-1.14-.48a50.05,50.05,0,0,1,7.6,4.08c.62.41,1.23.83,1.84,1.26l.92.67a4,4,0,0,0,.58.44c-.18-.08-.78-.61-.27-.21,1.36,1.08,2.68,2.2,4,3.38a4.78,4.78,0,0,0,6.76-6.76,58.5,58.5,0,0,0-21-12.84,43.71,43.71,0,0,0-18.51-1.95A55.31,55.31,0,0,0,1140.69,466a47.36,47.36,0,0,0-5.15,4.22,4.78,4.78,0,0,0,6.75,6.76Z" transform="translate(-528.02 -436.43)"/><path class="cls-2" d="M1154.47,491.87a22.41,22.41,0,0,1,2.63-2.43l.32-.26c.65-.52-1.05.8-.53.41l.75-.56c.55-.4,1.12-.78,1.7-1.14a31,31,0,0,1,4.16-2.17l-1.15.49a25.87,25.87,0,0,1,6.45-1.79l-1.27.17a23.83,23.83,0,0,1,6.2,0l-1.27-.17a26.06,26.06,0,0,1,6.42,1.78l-1.14-.48a31.94,31.94,0,0,1,5,2.66c.42.28.84.56,1.25.85l.68.5c.69.5-.62-.5-.16-.13.91.73,1.8,1.48,2.67,2.27a4.77,4.77,0,0,0,6.75-6.75c-7-6.42-16.22-11.3-26-10.13a32.51,32.51,0,0,0-10.88,3.25,37.16,37.16,0,0,0-6.78,4.54,22.22,22.22,0,0,0-2.51,2.34c-1.65,1.87-2,4.94,0,6.75,1.82,1.67,5,2,6.76,0Z" transform="translate(-528.02 -436.43)"/><circle class="cls-2" cx="642.78" cy="63.36" r="7.69"/><path class="cls-2" d="M1115.13,487.5,1085,550.07a64.11,64.11,0,0,1-7.43,11.93,65.61,65.61,0,0,1-8.78,9.23,125.76,125.76,0,0,1,8.78,10.35,72.25,72.25,0,0,1,7.43,12.16l30.16,62.8h-37.37l-22.51-47.94q-4.5-9-11.48-13.51a25.66,25.66,0,0,0-29,0q-7,4.5-11.71,13.51l-22.51,47.94H943.16l30.16-62.8A61.58,61.58,0,0,1,990,572.36a70.5,70.5,0,0,1-16.66-22.29L943.16,487.5h37.36L1003,535.22q4.72,9,11.71,13.5a25.66,25.66,0,0,0,29,0q7-4.5,11.48-13.5l22.51-47.72Z" transform="translate(-528.02 -436.43)"/><path class="cls-2" d="M716,762.68V711h6.15l33.14,42V711h6.14v51.73h-6.14l-33.14-41.79v41.79Z" transform="translate(-528.02 -436.43)"/><path class="cls-2" d="M784.3,762.68V711h34.92v5.66h-28.7v17h26.27v5.58H790.52V757h28.7v5.65Z" transform="translate(-528.02 -436.43)"/><path class="cls-2" d="M838.94,762.68h-7.19l20-26.75-19.08-25h7.68l15.6,20.37L871,711h7.19l-18.59,25.14,20.29,26.59h-7.68l-16.81-22.06Z" transform="translate(-528.02 -436.43)"/><path class="cls-2" d="M910,716.69H890.43V711h45.35v5.74H916.22v46H910Z" transform="translate(-528.02 -436.43)"/><path class="cls-2" d="M974,762.68V711h6.23v51.73Z" transform="translate(-528.02 -436.43)"/><path class="cls-2" d="M1021.3,757.92c3.93,0,7-.79,9.3-2.35a7.59,7.59,0,0,0,3.39-6.63,6.65,6.65,0,0,0-2.79-5.78c-1.86-1.32-4.84-2.27-8.93-2.87l-4.69-.64q-8.33-1.14-12.73-5a13.63,13.63,0,0,1,.57-20.57q5-3.91,13.37-3.92,9,0,14.35,4.33t6,12.16h-6.38q-.73-5.49-4.17-8.2t-9.74-2.71c-3.82,0-6.79.76-8.89,2.26a7.41,7.41,0,0,0-3.15,6.39,7.11,7.11,0,0,0,3.07,6.1q3.08,2.24,9.7,3.11l4.69.65q8.09,1.14,12.17,4.77a12.25,12.25,0,0,1,4.08,9.62,13.05,13.05,0,0,1-5.22,11q-5.21,4-14.18,4-9.37,0-15.24-4.73a16.05,16.05,0,0,1-6.18-12.4h6.46a11.18,11.18,0,0,0,4.49,8.32Q1014.75,757.91,1021.3,757.92Z" transform="translate(-528.02 -436.43)"/><path class="cls-2" d="M1081.36,762.68V711h6.14l33.14,42V711h6.15v51.73h-6.15l-33.14-41.79v41.79Z" transform="translate(-528.02 -436.43)"/><path class="cls-2" d="M1172.29,710.14q11.4,0,18.76,7.48t7.35,19.2q0,11.71-7.35,19.2t-18.76,7.47q-11.38,0-18.75-7.47t-7.35-19.2q0-11.73,7.35-19.2T1172.29,710.14Zm0,47.61q8.73,0,14.19-5.74t5.46-15.19q0-9.47-5.46-15.24t-14.19-5.78a18.62,18.62,0,0,0-14.18,5.78q-5.46,5.77-5.46,15.24t5.46,15.19Q1163.57,757.76,1172.29,757.75Z" transform="translate(-528.02 -436.43)"/><path class="cls-2" d="M1211.82,711h6.63l12.69,43.65,14.31-34-3.88-9.7h6.79l16.73,43.17L1277.54,711H1284l-15.52,51.73h-6.23l-13.82-34.59-14.87,34.59h-6.23Z" transform="translate(-528.02 -436.43)"/></svg>